<svg id="Capa_1" enable-background="new 0 0 512 512" height="512" viewBox="0 0 512 512" width="512" xmlns="http://www.w3.org/2000/svg"><g><path d="m510.301 241.625-12.226-42.477c-.976-3.179-5.144-6.855-10.252-4.938-15.727 4.528-32.2-4.584-36.726-20.309-4.526-15.724 4.585-32.199 20.314-36.726 3.35-.74 7.361-4.22 6.054-9.632l-10.604-36.84c-3.178-11.043-10.465-20.187-20.52-25.747-10.055-5.561-21.673-6.871-32.716-3.694l-382.486 110.091c-11.043 3.179-20.187 10.466-25.747 20.521-5.56 10.055-6.872 21.674-3.693 32.716 5.967 16.432 13.702 48.757 10.978 66.114 0 4.131 3.298 7.506 7.427 7.602 12.563.292 23.522 8.585 27.43 20.242-2.783 2.239-6.004 4.008-9.587 5.13-3.942 1.234-6.177 5.39-5.034 9.359l5.169 17.958c-5.078 4.139-11.327 6.466-17.978 6.621-4.13.096-7.427 3.471-7.427 7.602v44.202c0 23.72 19.298 43.018 43.018 43.018h96.277c4.2 0 7.604-3.404 7.604-7.604 0-4.199-3.404-7.604-7.604-7.604h-96.277c-15.335 0-27.811-12.476-27.811-27.81v-37.384c5.2-.988 10.143-2.882 14.642-5.599l2.614 9.078c3.178 11.043 10.465 20.187 20.52 25.747 9.087 4.741 20.224 7.371 32.716 3.693l352.192-101.371c-4.561 7.023-7.213 15.397-7.213 24.377 0 22.464 16.59 41.126 38.162 44.38v37.079c0 15.335-12.476 27.81-27.81 27.81h-265.287c-4.2 0-7.604 3.404-7.604 7.604 0 4.199 3.404 7.604 7.604 7.604h265.288c23.72 0 43.017-19.298 43.017-43.018v-44.202c-.063-3.324-3.041-8.013-8.487-7.582-16.363 0-29.675-13.312-29.675-29.674s13.312-29.674 29.675-29.674c3.425.221 8.243-2.02 8.487-7.582v-4.305c3.95-3.338 7.306-7.395 9.884-12.056 5.56-10.058 6.871-21.676 3.692-32.72zm-482.417 42.277v-18.153c20.086-.754 35.478 19.138 29.485 38.335-6.56-10.362-17.227-17.802-29.485-20.182zm245.12 8.386 27.298-7.857 12.38 43.015-27.297 7.857zm220.296-25.305c-3.737 6.76-9.569 10.816-16.645 13.266l-113.734 32.736-.841-2.923c-1.162-4.036-5.382-6.364-9.409-5.204-4.035 1.162-6.366 5.375-5.204 9.41l.841 2.922-21.012 6.048-14.483-50.321c-.557-1.938-1.862-3.575-3.627-4.551-1.766-.976-3.845-1.211-5.783-.653l-41.912 12.063c-1.939.558-3.575 1.863-4.551 3.628s-1.211 3.845-.652 5.783l14.484 50.321-176.602 50.832c-7.141 2.056-14.652 1.207-21.152-2.387s-11.21-9.506-13.266-16.646l-10.341-35.928c18.258-9.242 28.14-30.644 23.24-50.568-5.394-21.93-25.583-35.369-47.621-34.136l-8.718-30.291c-2.054-7.139-1.207-14.651 2.388-21.151 3.594-6.5 9.506-11.211 16.645-13.266l254.138-73.149.842 2.923c.959 3.333 4 5.502 7.303 5.502.697 0 1.405-.097 2.108-.299 4.035-1.162 6.365-5.375 5.203-9.41l-.841-2.922 113.732-32.736c7.14-2.055 14.651-1.207 21.152 2.388 6.5 3.594 11.21 9.506 13.266 16.645l8.633 29.995c-19.83 9.093-30.611 31.616-24.397 53.204 6.214 21.586 27.304 34.936 48.948 32.092l10.256 35.632c2.054 7.14 1.207 14.651-2.388 21.151z"/><path d="m320.618 166.015-5.581-19.391c-1.162-4.036-5.383-6.365-9.41-5.204-4.035 1.162-6.366 5.375-5.204 9.41l5.581 19.391c1.115 2.919 4.599 6.584 9.409 5.204 4.037-1.162 6.367-5.375 5.205-9.41z"/><path d="m336.3 220.494-5.582-19.391c-1.162-4.036-5.38-6.363-9.411-5.204-4.035 1.162-6.365 5.375-5.203 9.411l5.582 19.391c1.116 2.919 4.599 6.583 9.41 5.204 4.036-1.162 6.366-5.375 5.204-9.411z"/><path d="m346.399 255.583c-1.162-4.037-5.383-6.365-9.41-5.204-4.035 1.161-6.366 5.375-5.204 9.41l5.581 19.391c1.115 2.919 4.599 6.584 9.41 5.204 4.035-1.161 6.366-5.375 5.204-9.41z"/><path d="m427.501 135.447c.976-1.765 1.211-3.845.652-5.783l-8.509-29.56c-1.161-4.035-5.379-6.365-9.41-5.204l-76.488 22.015c-4.035 1.162-6.366 5.375-5.204 9.41l8.508 29.56c1.548 2.91 3.168 6.389 9.41 5.204l76.489-22.016c1.939-.557 3.576-1.861 4.552-3.626zm-77.94 8.926-4.302-14.946 61.875-17.809 4.302 14.946z"/><path d="m415.531 251.265 40.864-11.762c4.035-1.162 6.366-5.375 5.204-9.411-1.162-4.037-5.382-6.365-9.409-5.204l-40.864 11.762c-4.035 1.162-6.366 5.375-5.204 9.41.959 3.333 4 5.502 7.303 5.502.696.002 1.404-.095 2.106-.297z"/><path d="m459.728 251.084-40.864 11.761c-4.035 1.162-6.366 5.375-5.204 9.41.959 3.334 4 5.503 7.303 5.503.696 0 1.405-.097 2.107-.298l40.864-11.761c4.035-1.162 6.366-5.375 5.204-9.41-1.163-4.038-5.382-6.366-9.41-5.205z"/><path d="m145.519 330.177-57.628 16.587c-4.035 1.162-6.366 5.375-5.204 9.41.959 3.333 4 5.502 7.303 5.502.697 0 1.405-.097 2.107-.298l57.628-16.587c4.035-1.162 6.366-5.375 5.204-9.41-1.162-4.037-5.382-6.365-9.41-5.204z"/><path d="m438.966 420.816c4.2 0 7.604-3.404 7.604-7.604v-29.439c0-4.199-3.404-7.604-7.604-7.604h-83.955c-4.2 0-7.604 3.404-7.604 7.604v29.439c0 4.199 3.404 7.604 7.604 7.604zm-76.352-29.438h68.748v14.232h-68.748z"/><path d="m317.781 404.573c4.2 0 7.604-3.404 7.604-7.604s-3.404-7.604-7.604-7.604h-80.834c-4.2 0-7.604 3.404-7.604 7.604s3.404 7.604 7.604 7.604z"/><path d="m237.094 210.782c-3.005.865-10.681 3.391-20.875 6.822l-43.455-41.14c-1.955-1.85-4.741-2.531-7.33-1.786l-23.051 6.635c-3.649 1.131-7.413 6.092-4.096 11.711l29.262 41.188c-25.284 8.696-49.367 17.047-56.787 19.622l-25.147-6.529c-5.205-1.449-11.909 4.398-8.476 11.197l19.243 32.923c2.348 2.369 3.674 4.64 9.032 3.355l13.79-4.731c4.163-.959 31.539-7.266 60.388-13.998l-2.888 50.442c.607 3.666 1.639 8.871 9.694 7.742l23.051-6.635c2.588-.745 4.588-2.802 5.26-5.409l14.935-57.947c10.454-2.512 18.301-4.454 21.305-5.319 17.176-4.944 23.785-26.48 24.482-28.919.799-2.795-.066-5.802-2.229-7.745-1.887-1.696-18.945-16.42-36.108-11.479zm-80.198-17.822 8.568-2.466 34.464 32.629c-5.553 1.891-11.414 3.894-17.383 5.94zm44.172 121.228-8.568 2.466 2.53-44.214c6.143-1.441 12.173-2.86 17.882-4.21zm45.676-69.876c-27.328 7.244-126.823 29.811-132.099 31.224l-8.275 2.839-6.87-11.753 9.67 2.511c7.192.265 9.395-2.477 23.287-6.719 23.813-8.251 64.468-22.249 84.306-28.945 12.082-4.085 21.297-7.139 24.537-8.072 5.651-1.628 12.966 1.991 17.729 5.155-2.334 5.203-6.583 12.118-12.285 13.76z"/></g></svg>