<svg id="Capa_1" enable-background="new 0 0 510.862 510.862" height="512" viewBox="0 0 510.862 510.862" width="512" xmlns="http://www.w3.org/2000/svg"><g><path d="m486.973 259.24h-106.23v-18.72c0-7.004-5.698-12.703-12.703-12.703h-85.833c-7.005 0-12.703 5.699-12.703 12.703v18.72h-13.907v-69.677c0-13.659-11.112-24.772-24.771-24.772h-30.281v-134.894c0-8.187-6.66-14.848-14.848-14.848h-11.574v-3.372c-.001-6.438-5.24-11.677-11.679-11.677h-58.087c-6.438 0-11.677 5.239-11.677 11.677v3.372h-11.574c-8.187 0-14.848 6.661-14.848 14.848v134.894h-39.342c-13.659 0-24.773 11.113-24.773 24.772v77.092c0 4.142 3.357 7.5 7.5 7.5s7.5-3.358 7.5-7.5v-77.092c0-5.388 4.384-9.772 9.773-9.772h203.909c5.388 0 9.771 4.384 9.771 9.772v261.92c0 5.388-4.384 9.772-9.771 9.772h-203.909c-5.389 0-9.773-4.384-9.773-9.772v-154.828c0-4.142-3.357-7.5-7.5-7.5s-7.5 3.358-7.5 7.5v154.827c0 13.659 11.113 24.772 24.773 24.772h15.25v27.082c0 4.142 3.357 7.5 7.5 7.5s7.5-3.358 7.5-7.5v-27.082h84.362v12.861c0 11.991 9.755 21.746 21.745 21.746h323.7c11.99 0 21.745-9.755 21.745-21.746v-208.13c0-11.99-9.754-21.745-21.745-21.745zm-379.293-244.24h51.441v15.098h-51.441zm-26.422 15.049h11.422v3.372c0 6.439 5.238 11.677 11.677 11.677h58.087c6.439 0 11.678-5.238 11.678-11.677v-3.372h11.422v134.742h-104.286zm351.585 244.191v220.559h-15.007v-220.559zm-177.247 177.243v-177.243h69.527c4.143 0 7.5-3.358 7.5-7.5s-3.357-7.5-7.5-7.5h-40.62v-16.423h81.239v16.423h-10.619c-4.143 0-7.5 3.358-7.5 7.5s3.357 7.5 7.5 7.5h47.713v221.621h-187.261v-19.607h15.25c13.659.001 24.771-11.112 24.771-24.771zm-99.068 37.633v-12.861h44.047v19.607h-37.302c-3.72 0-6.745-3.027-6.745-6.746zm337.19 0c0 3.72-3.025 6.746-6.745 6.746h-39.13v-221.622h39.13c3.72 0 6.745 3.026 6.745 6.746z"/><path d="m289.884 440.035h55.417c9.272 0 16.815-7.543 16.815-16.815v-21.824c0-9.272-7.543-16.815-16.815-16.815h-55.417c-9.271 0-16.814 7.543-16.814 16.815v21.824c0 9.272 7.543 16.815 16.814 16.815zm-1.814-38.639c0-1.001.814-1.815 1.814-1.815h55.417c1.001 0 1.815.814 1.815 1.815v21.824c0 1.001-.814 1.815-1.815 1.815h-55.417c-1 0-1.814-.814-1.814-1.815z"/><path d="m65.763 422.566v-204.086c0-4.142-3.357-7.5-7.5-7.5s-7.5 3.358-7.5 7.5v204.087c0 4.142 3.357 7.5 7.5 7.5 4.143-.001 7.5-3.359 7.5-7.501z"/><path d="m112.835 422.566v-204.086c0-4.142-3.357-7.5-7.5-7.5s-7.5 3.358-7.5 7.5v204.087c0 4.142 3.357 7.5 7.5 7.5 4.142-.001 7.5-3.359 7.5-7.501z"/><path d="m159.906 422.566v-204.086c0-4.142-3.357-7.5-7.5-7.5s-7.5 3.358-7.5 7.5v204.087c0 4.142 3.357 7.5 7.5 7.5s7.5-3.359 7.5-7.501z"/><path d="m206.977 422.566v-204.086c0-4.142-3.357-7.5-7.5-7.5s-7.5 3.358-7.5 7.5v204.087c0 4.142 3.357 7.5 7.5 7.5 4.143-.001 7.5-3.359 7.5-7.501z"/></g></svg>