<svg id="Capa_1" enable-background="new 0 0 512.866 512.866" height="512" viewBox="0 0 512.866 512.866" width="512" xmlns="http://www.w3.org/2000/svg"><g><path d="m411.891 64.393c-41.524-41.525-96.733-64.393-155.458-64.393s-113.933 22.868-155.458 64.393-64.393 96.733-64.393 155.458c0 96.196 134.882 229.603 192.874 282.494 7.691 7.015 17.333 10.521 26.978 10.521 9.643 0 19.289-3.508 26.978-10.521 57.991-52.892 192.874-186.298 192.874-282.494-.002-58.725-22.87-113.934-64.395-155.458zm-138.589 426.87c-9.617 8.771-24.121 8.771-33.738 0-25.212-22.996-73.646-69.286-114.744-120.942-48.597-61.082-73.238-111.707-73.238-150.47 0-112.955 91.896-204.851 204.851-204.851s204.851 91.896 204.851 204.851c0 38.763-24.641 89.388-73.238 150.47-41.098 51.656-89.531 97.946-114.744 120.942z"/><path d="m292.613 365.019c-11.792 2.93-23.965 4.415-36.18 4.415-58.448 0-109.166-33.702-133.763-82.688l50.594-41.9c3.19-2.642 3.635-7.37.993-10.561-2.643-3.188-7.37-3.634-10.56-.992l-47.287 39.161c-6.171-16.373-9.558-34.099-9.558-52.604 0-82.48 67.103-149.583 149.583-149.583 40.328 0 78.143 15.817 106.48 44.539 2.908 2.947 7.657 2.979 10.606.071 2.949-2.909 2.98-7.658.071-10.606-31.178-31.601-72.785-49.004-117.158-49.004-90.751 0-164.583 73.832-164.583 164.583s73.832 164.583 164.583 164.583c13.433 0 26.822-1.635 39.797-4.858 4.02-.998 6.469-5.066 5.471-9.087-1-4.019-5.067-6.47-9.089-5.469z"/><path d="m394.577 130.368c-2.255-3.476-6.901-4.462-10.374-2.208-3.475 2.255-4.463 6.899-2.208 10.374 15.715 24.212 24.021 52.331 24.021 81.316 0 5.333-.284 10.637-.841 15.894l-40.409-32.295c-7.043-5.63-17.198-5.541-24.144.21l-37.356 30.937-59.671-47.69c-7.044-5.628-17.198-5.539-24.143.211l-31.14 25.789c-3.19 2.642-3.635 7.37-.993 10.561s7.37 3.635 10.56.992l31.14-25.789c1.499-1.242 3.691-1.26 5.211-.046l64.395 51.465c.022.018.045.036.067.053l76.26 60.948c-14.229 18.47-32.55 33.409-53.627 43.574-3.731 1.8-5.297 6.283-3.498 10.014 1.293 2.681 3.971 4.244 6.761 4.244 1.093 0 2.203-.24 3.252-.746 27.496-13.261 50.752-33.882 67.257-59.635 16.956-26.457 25.918-57.126 25.918-88.69.001-31.891-9.142-62.833-26.438-89.483zm-11.055 168.369-68.287-54.576 34.956-28.949c1.499-1.24 3.691-1.262 5.211-.046l46.971 37.54c-3.642 16.239-9.989 31.783-18.851 46.031z"/><path d="m273.271 152.934c0 16.586 13.494 30.079 30.079 30.079s30.079-13.493 30.079-30.079-13.494-30.079-30.079-30.079-30.079 13.493-30.079 30.079zm45.159 0c0 8.314-6.765 15.079-15.079 15.079s-15.079-6.765-15.079-15.079 6.765-15.079 15.079-15.079 15.079 6.764 15.079 15.079z"/></g></svg>